<?xml version="1.0" encoding="utf-8" standalone="no"?>
<!DOCTYPE svg PUBLIC "-//W3C//DTD SVG 1.1//EN"
  "http://www.w3.org/Graphics/SVG/1.1/DTD/svg11.dtd">
<svg xmlns:xlink="http://www.w3.org/1999/xlink" width="946.058661pt" height="832.96551pt" viewBox="0 0 946.058661 832.96551" xmlns="http://www.w3.org/2000/svg" version="1.1">
 <metadata>
  <rdf:RDF xmlns:dc="http://purl.org/dc/elements/1.1/" xmlns:cc="http://creativecommons.org/ns#" xmlns:rdf="http://www.w3.org/1999/02/22-rdf-syntax-ns#">
   <cc:Work>
    <dc:type rdf:resource="http://purl.org/dc/dcmitype/StillImage"/>
    <dc:date>2022-12-29T00:57:22.553647</dc:date>
    <dc:format>image/svg+xml</dc:format>
    <dc:creator>
     <cc:Agent>
      <dc:title>Matplotlib v3.6.2, https://matplotlib.org/</dc:title>
     </cc:Agent>
    </dc:creator>
   </cc:Work>
  </rdf:RDF>
 </metadata>
 <defs>
  <style type="text/css">*{stroke-linejoin: round; stroke-linecap: butt}</style>
 </defs>
 <g id="figure_1">
  <g id="patch_1">
   <path d="M 0 832.96551 
L 946.058661 832.96551 
L 946.058661 0 
L 0 0 
z
" style="fill: #f0f0f0"/>
  </g>
  <g id="axes_1">
   <g id="patch_2">
    <path d="M 42.593438 386.358261 
L 441.211619 386.358261 
L 441.211619 82.08 
L 42.593438 82.08 
z
" style="fill: #f0f0f0"/>
   </g>
   <g id="matplotlib.axis_1">
    <g id="xtick_1">
     <g id="line2d_1"/>
     <g id="text_1">
      <!-- Walter -->
      <g transform="translate(65.465218 404.267041) rotate(-10) scale(0.11 -0.11)">
       <defs>
        <path id="DejaVuSans-57" d="M 213 4666 
L 850 4666 
L 1831 722 
L 2809 4666 
L 3519 4666 
L 4500 722 
L 5478 4666 
L 6119 4666 
L 4947 0 
L 4153 0 
L 3169 4050 
L 2175 0 
L 1381 0 
L 213 4666 
z
" transform="scale(0.015625)"/>
        <path id="DejaVuSans-61" d="M 2194 1759 
Q 1497 1759 1228 1600 
Q 959 1441 959 1056 
Q 959 750 1161 570 
Q 1363 391 1709 391 
Q 2188 391 2477 730 
Q 2766 1069 2766 1631 
L 2766 1759 
L 2194 1759 
z
M 3341 1997 
L 3341 0 
L 2766 0 
L 2766 531 
Q 2569 213 2275 61 
Q 1981 -91 1556 -91 
Q 1019 -91 701 211 
Q 384 513 384 1019 
Q 384 1609 779 1909 
Q 1175 2209 1959 2209 
L 2766 2209 
L 2766 2266 
Q 2766 2663 2505 2880 
Q 2244 3097 1772 3097 
Q 1472 3097 1187 3025 
Q 903 2953 641 2809 
L 641 3341 
Q 956 3463 1253 3523 
Q 1550 3584 1831 3584 
Q 2591 3584 2966 3190 
Q 3341 2797 3341 1997 
z
" transform="scale(0.015625)"/>
        <path id="DejaVuSans-6c" d="M 603 4863 
L 1178 4863 
L 1178 0 
L 603 0 
L 603 4863 
z
" transform="scale(0.015625)"/>
        <path id="DejaVuSans-74" d="M 1172 4494 
L 1172 3500 
L 2356 3500 
L 2356 3053 
L 1172 3053 
L 1172 1153 
Q 1172 725 1289 603 
Q 1406 481 1766 481 
L 2356 481 
L 2356 0 
L 1766 0 
Q 1100 0 847 248 
Q 594 497 594 1153 
L 594 3053 
L 172 3053 
L 172 3500 
L 594 3500 
L 594 4494 
L 1172 4494 
z
" transform="scale(0.015625)"/>
        <path id="DejaVuSans-65" d="M 3597 1894 
L 3597 1613 
L 953 1613 
Q 991 1019 1311 708 
Q 1631 397 2203 397 
Q 2534 397 2845 478 
Q 3156 559 3463 722 
L 3463 178 
Q 3153 47 2828 -22 
Q 2503 -91 2169 -91 
Q 1331 -91 842 396 
Q 353 884 353 1716 
Q 353 2575 817 3079 
Q 1281 3584 2069 3584 
Q 2775 3584 3186 3129 
Q 3597 2675 3597 1894 
z
M 3022 2063 
Q 3016 2534 2758 2815 
Q 2500 3097 2075 3097 
Q 1594 3097 1305 2825 
Q 1016 2553 972 2059 
L 3022 2063 
z
" transform="scale(0.015625)"/>
        <path id="DejaVuSans-72" d="M 2631 2963 
Q 2534 3019 2420 3045 
Q 2306 3072 2169 3072 
Q 1681 3072 1420 2755 
Q 1159 2438 1159 1844 
L 1159 0 
L 581 0 
L 581 3500 
L 1159 3500 
L 1159 2956 
Q 1341 3275 1631 3429 
Q 1922 3584 2338 3584 
Q 2397 3584 2469 3576 
Q 2541 3569 2628 3553 
L 2631 2963 
z
" transform="scale(0.015625)"/>
       </defs>
       <use xlink:href="#DejaVuSans-57"/>
       <use xlink:href="#DejaVuSans-61" x="92.501953"/>
       <use xlink:href="#DejaVuSans-6c" x="153.78125"/>
       <use xlink:href="#DejaVuSans-74" x="181.564453"/>
       <use xlink:href="#DejaVuSans-65" x="220.773438"/>
       <use xlink:href="#DejaVuSans-72" x="282.296875"/>
      </g>
     </g>
    </g>
    <g id="xtick_2">
     <g id="line2d_2"/>
     <g id="text_2">
      <!-- Jesse -->
      <g transform="translate(148.799252 402.99382) rotate(-10) scale(0.11 -0.11)">
       <defs>
        <path id="DejaVuSans-4a" d="M 628 4666 
L 1259 4666 
L 1259 325 
Q 1259 -519 939 -900 
Q 619 -1281 -91 -1281 
L -331 -1281 
L -331 -750 
L -134 -750 
Q 284 -750 456 -515 
Q 628 -281 628 325 
L 628 4666 
z
" transform="scale(0.015625)"/>
        <path id="DejaVuSans-73" d="M 2834 3397 
L 2834 2853 
Q 2591 2978 2328 3040 
Q 2066 3103 1784 3103 
Q 1356 3103 1142 2972 
Q 928 2841 928 2578 
Q 928 2378 1081 2264 
Q 1234 2150 1697 2047 
L 1894 2003 
Q 2506 1872 2764 1633 
Q 3022 1394 3022 966 
Q 3022 478 2636 193 
Q 2250 -91 1575 -91 
Q 1294 -91 989 -36 
Q 684 19 347 128 
L 347 722 
Q 666 556 975 473 
Q 1284 391 1588 391 
Q 1994 391 2212 530 
Q 2431 669 2431 922 
Q 2431 1156 2273 1281 
Q 2116 1406 1581 1522 
L 1381 1569 
Q 847 1681 609 1914 
Q 372 2147 372 2553 
Q 372 3047 722 3315 
Q 1072 3584 1716 3584 
Q 2034 3584 2315 3537 
Q 2597 3491 2834 3397 
z
" transform="scale(0.015625)"/>
       </defs>
       <use xlink:href="#DejaVuSans-4a"/>
       <use xlink:href="#DejaVuSans-65" x="29.492188"/>
       <use xlink:href="#DejaVuSans-73" x="91.015625"/>
       <use xlink:href="#DejaVuSans-73" x="143.115234"/>
       <use xlink:href="#DejaVuSans-65" x="195.214844"/>
      </g>
     </g>
    </g>
    <g id="xtick_3">
     <g id="line2d_3"/>
     <g id="text_3">
      <!-- Hank -->
      <g transform="translate(228.467878 403.013219) rotate(-10) scale(0.11 -0.11)">
       <defs>
        <path id="DejaVuSans-48" d="M 628 4666 
L 1259 4666 
L 1259 2753 
L 3553 2753 
L 3553 4666 
L 4184 4666 
L 4184 0 
L 3553 0 
L 3553 2222 
L 1259 2222 
L 1259 0 
L 628 0 
L 628 4666 
z
" transform="scale(0.015625)"/>
        <path id="DejaVuSans-6e" d="M 3513 2113 
L 3513 0 
L 2938 0 
L 2938 2094 
Q 2938 2591 2744 2837 
Q 2550 3084 2163 3084 
Q 1697 3084 1428 2787 
Q 1159 2491 1159 1978 
L 1159 0 
L 581 0 
L 581 3500 
L 1159 3500 
L 1159 2956 
Q 1366 3272 1645 3428 
Q 1925 3584 2291 3584 
Q 2894 3584 3203 3211 
Q 3513 2838 3513 2113 
z
" transform="scale(0.015625)"/>
        <path id="DejaVuSans-6b" d="M 581 4863 
L 1159 4863 
L 1159 1991 
L 2875 3500 
L 3609 3500 
L 1753 1863 
L 3688 0 
L 2938 0 
L 1159 1709 
L 1159 0 
L 581 0 
L 581 4863 
z
" transform="scale(0.015625)"/>
       </defs>
       <use xlink:href="#DejaVuSans-48"/>
       <use xlink:href="#DejaVuSans-61" x="75.195312"/>
       <use xlink:href="#DejaVuSans-6e" x="136.474609"/>
       <use xlink:href="#DejaVuSans-6b" x="199.853516"/>
      </g>
     </g>
    </g>
    <g id="xtick_4">
     <g id="line2d_4"/>
     <g id="text_4">
      <!-- Skyler -->
      <g transform="translate(305.504451 403.960823) rotate(-10) scale(0.11 -0.11)">
       <defs>
        <path id="DejaVuSans-53" d="M 3425 4513 
L 3425 3897 
Q 3066 4069 2747 4153 
Q 2428 4238 2131 4238 
Q 1616 4238 1336 4038 
Q 1056 3838 1056 3469 
Q 1056 3159 1242 3001 
Q 1428 2844 1947 2747 
L 2328 2669 
Q 3034 2534 3370 2195 
Q 3706 1856 3706 1288 
Q 3706 609 3251 259 
Q 2797 -91 1919 -91 
Q 1588 -91 1214 -16 
Q 841 59 441 206 
L 441 856 
Q 825 641 1194 531 
Q 1563 422 1919 422 
Q 2459 422 2753 634 
Q 3047 847 3047 1241 
Q 3047 1584 2836 1778 
Q 2625 1972 2144 2069 
L 1759 2144 
Q 1053 2284 737 2584 
Q 422 2884 422 3419 
Q 422 4038 858 4394 
Q 1294 4750 2059 4750 
Q 2388 4750 2728 4690 
Q 3069 4631 3425 4513 
z
" transform="scale(0.015625)"/>
        <path id="DejaVuSans-79" d="M 2059 -325 
Q 1816 -950 1584 -1140 
Q 1353 -1331 966 -1331 
L 506 -1331 
L 506 -850 
L 844 -850 
Q 1081 -850 1212 -737 
Q 1344 -625 1503 -206 
L 1606 56 
L 191 3500 
L 800 3500 
L 1894 763 
L 2988 3500 
L 3597 3500 
L 2059 -325 
z
" transform="scale(0.015625)"/>
       </defs>
       <use xlink:href="#DejaVuSans-53"/>
       <use xlink:href="#DejaVuSans-6b" x="63.476562"/>
       <use xlink:href="#DejaVuSans-79" x="117.761719"/>
       <use xlink:href="#DejaVuSans-6c" x="176.941406"/>
       <use xlink:href="#DejaVuSans-65" x="204.724609"/>
       <use xlink:href="#DejaVuSans-72" x="266.248047"/>
      </g>
     </g>
    </g>
    <g id="xtick_5">
     <g id="line2d_5"/>
     <g id="text_5">
      <!-- Tuco Salamanca -->
      <g transform="translate(358.03416 413.550869) rotate(-10) scale(0.11 -0.11)">
       <defs>
        <path id="DejaVuSans-54" d="M -19 4666 
L 3928 4666 
L 3928 4134 
L 2272 4134 
L 2272 0 
L 1638 0 
L 1638 4134 
L -19 4134 
L -19 4666 
z
" transform="scale(0.015625)"/>
        <path id="DejaVuSans-75" d="M 544 1381 
L 544 3500 
L 1119 3500 
L 1119 1403 
Q 1119 906 1312 657 
Q 1506 409 1894 409 
Q 2359 409 2629 706 
Q 2900 1003 2900 1516 
L 2900 3500 
L 3475 3500 
L 3475 0 
L 2900 0 
L 2900 538 
Q 2691 219 2414 64 
Q 2138 -91 1772 -91 
Q 1169 -91 856 284 
Q 544 659 544 1381 
z
M 1991 3584 
L 1991 3584 
z
" transform="scale(0.015625)"/>
        <path id="DejaVuSans-63" d="M 3122 3366 
L 3122 2828 
Q 2878 2963 2633 3030 
Q 2388 3097 2138 3097 
Q 1578 3097 1268 2742 
Q 959 2388 959 1747 
Q 959 1106 1268 751 
Q 1578 397 2138 397 
Q 2388 397 2633 464 
Q 2878 531 3122 666 
L 3122 134 
Q 2881 22 2623 -34 
Q 2366 -91 2075 -91 
Q 1284 -91 818 406 
Q 353 903 353 1747 
Q 353 2603 823 3093 
Q 1294 3584 2113 3584 
Q 2378 3584 2631 3529 
Q 2884 3475 3122 3366 
z
" transform="scale(0.015625)"/>
        <path id="DejaVuSans-6f" d="M 1959 3097 
Q 1497 3097 1228 2736 
Q 959 2375 959 1747 
Q 959 1119 1226 758 
Q 1494 397 1959 397 
Q 2419 397 2687 759 
Q 2956 1122 2956 1747 
Q 2956 2369 2687 2733 
Q 2419 3097 1959 3097 
z
M 1959 3584 
Q 2709 3584 3137 3096 
Q 3566 2609 3566 1747 
Q 3566 888 3137 398 
Q 2709 -91 1959 -91 
Q 1206 -91 779 398 
Q 353 888 353 1747 
Q 353 2609 779 3096 
Q 1206 3584 1959 3584 
z
" transform="scale(0.015625)"/>
        <path id="DejaVuSans-20" transform="scale(0.015625)"/>
        <path id="DejaVuSans-6d" d="M 3328 2828 
Q 3544 3216 3844 3400 
Q 4144 3584 4550 3584 
Q 5097 3584 5394 3201 
Q 5691 2819 5691 2113 
L 5691 0 
L 5113 0 
L 5113 2094 
Q 5113 2597 4934 2840 
Q 4756 3084 4391 3084 
Q 3944 3084 3684 2787 
Q 3425 2491 3425 1978 
L 3425 0 
L 2847 0 
L 2847 2094 
Q 2847 2600 2669 2842 
Q 2491 3084 2119 3084 
Q 1678 3084 1418 2786 
Q 1159 2488 1159 1978 
L 1159 0 
L 581 0 
L 581 3500 
L 1159 3500 
L 1159 2956 
Q 1356 3278 1631 3431 
Q 1906 3584 2284 3584 
Q 2666 3584 2933 3390 
Q 3200 3197 3328 2828 
z
" transform="scale(0.015625)"/>
       </defs>
       <use xlink:href="#DejaVuSans-54"/>
       <use xlink:href="#DejaVuSans-75" x="45.958984"/>
       <use xlink:href="#DejaVuSans-63" x="109.337891"/>
       <use xlink:href="#DejaVuSans-6f" x="164.318359"/>
       <use xlink:href="#DejaVuSans-20" x="225.5"/>
       <use xlink:href="#DejaVuSans-53" x="257.287109"/>
       <use xlink:href="#DejaVuSans-61" x="320.763672"/>
       <use xlink:href="#DejaVuSans-6c" x="382.042969"/>
       <use xlink:href="#DejaVuSans-61" x="409.826172"/>
       <use xlink:href="#DejaVuSans-6d" x="471.105469"/>
       <use xlink:href="#DejaVuSans-61" x="568.517578"/>
       <use xlink:href="#DejaVuSans-6e" x="629.796875"/>
       <use xlink:href="#DejaVuSans-63" x="693.175781"/>
       <use xlink:href="#DejaVuSans-61" x="748.15625"/>
      </g>
     </g>
    </g>
   </g>
   <g id="matplotlib.axis_2">
    <g id="ytick_1">
     <g id="line2d_6">
      <path d="M 42.593438 386.358261 
L 441.211619 386.358261 
" clip-path="url(#p357c358ecb)" style="fill: none; stroke: #cbcbcb"/>
     </g>
     <g id="line2d_7"/>
     <g id="text_6">
      <!-- 0.0 -->
      <g transform="translate(21.6 390.537401) scale(0.11 -0.11)">
       <defs>
        <path id="DejaVuSans-30" d="M 2034 4250 
Q 1547 4250 1301 3770 
Q 1056 3291 1056 2328 
Q 1056 1369 1301 889 
Q 1547 409 2034 409 
Q 2525 409 2770 889 
Q 3016 1369 3016 2328 
Q 3016 3291 2770 3770 
Q 2525 4250 2034 4250 
z
M 2034 4750 
Q 2819 4750 3233 4129 
Q 3647 3509 3647 2328 
Q 3647 1150 3233 529 
Q 2819 -91 2034 -91 
Q 1250 -91 836 529 
Q 422 1150 422 2328 
Q 422 3509 836 4129 
Q 1250 4750 2034 4750 
z
" transform="scale(0.015625)"/>
        <path id="DejaVuSans-2e" d="M 684 794 
L 1344 794 
L 1344 0 
L 684 0 
L 684 794 
z
" transform="scale(0.015625)"/>
       </defs>
       <use xlink:href="#DejaVuSans-30"/>
       <use xlink:href="#DejaVuSans-2e" x="63.623047"/>
       <use xlink:href="#DejaVuSans-30" x="95.410156"/>
      </g>
     </g>
    </g>
    <g id="ytick_2">
     <g id="line2d_8">
      <path d="M 42.593438 320.497165 
L 441.211619 320.497165 
" clip-path="url(#p357c358ecb)" style="fill: none; stroke: #cbcbcb"/>
     </g>
     <g id="line2d_9"/>
     <g id="text_7">
      <!-- 0.2 -->
      <g transform="translate(21.6 324.676306) scale(0.11 -0.11)">
       <defs>
        <path id="DejaVuSans-32" d="M 1228 531 
L 3431 531 
L 3431 0 
L 469 0 
L 469 531 
Q 828 903 1448 1529 
Q 2069 2156 2228 2338 
Q 2531 2678 2651 2914 
Q 2772 3150 2772 3378 
Q 2772 3750 2511 3984 
Q 2250 4219 1831 4219 
Q 1534 4219 1204 4116 
Q 875 4013 500 3803 
L 500 4441 
Q 881 4594 1212 4672 
Q 1544 4750 1819 4750 
Q 2544 4750 2975 4387 
Q 3406 4025 3406 3419 
Q 3406 3131 3298 2873 
Q 3191 2616 2906 2266 
Q 2828 2175 2409 1742 
Q 1991 1309 1228 531 
z
" transform="scale(0.015625)"/>
       </defs>
       <use xlink:href="#DejaVuSans-30"/>
       <use xlink:href="#DejaVuSans-2e" x="63.623047"/>
       <use xlink:href="#DejaVuSans-32" x="95.410156"/>
      </g>
     </g>
    </g>
    <g id="ytick_3">
     <g id="line2d_10">
      <path d="M 42.593438 254.63607 
L 441.211619 254.63607 
" clip-path="url(#p357c358ecb)" style="fill: none; stroke: #cbcbcb"/>
     </g>
     <g id="line2d_11"/>
     <g id="text_8">
      <!-- 0.4 -->
      <g transform="translate(21.6 258.815211) scale(0.11 -0.11)">
       <defs>
        <path id="DejaVuSans-34" d="M 2419 4116 
L 825 1625 
L 2419 1625 
L 2419 4116 
z
M 2253 4666 
L 3047 4666 
L 3047 1625 
L 3713 1625 
L 3713 1100 
L 3047 1100 
L 3047 0 
L 2419 0 
L 2419 1100 
L 313 1100 
L 313 1709 
L 2253 4666 
z
" transform="scale(0.015625)"/>
       </defs>
       <use xlink:href="#DejaVuSans-30"/>
       <use xlink:href="#DejaVuSans-2e" x="63.623047"/>
       <use xlink:href="#DejaVuSans-34" x="95.410156"/>
      </g>
     </g>
    </g>
    <g id="ytick_4">
     <g id="line2d_12">
      <path d="M 42.593438 188.774975 
L 441.211619 188.774975 
" clip-path="url(#p357c358ecb)" style="fill: none; stroke: #cbcbcb"/>
     </g>
     <g id="line2d_13"/>
     <g id="text_9">
      <!-- 0.6 -->
      <g transform="translate(21.6 192.954115) scale(0.11 -0.11)">
       <defs>
        <path id="DejaVuSans-36" d="M 2113 2584 
Q 1688 2584 1439 2293 
Q 1191 2003 1191 1497 
Q 1191 994 1439 701 
Q 1688 409 2113 409 
Q 2538 409 2786 701 
Q 3034 994 3034 1497 
Q 3034 2003 2786 2293 
Q 2538 2584 2113 2584 
z
M 3366 4563 
L 3366 3988 
Q 3128 4100 2886 4159 
Q 2644 4219 2406 4219 
Q 1781 4219 1451 3797 
Q 1122 3375 1075 2522 
Q 1259 2794 1537 2939 
Q 1816 3084 2150 3084 
Q 2853 3084 3261 2657 
Q 3669 2231 3669 1497 
Q 3669 778 3244 343 
Q 2819 -91 2113 -91 
Q 1303 -91 875 529 
Q 447 1150 447 2328 
Q 447 3434 972 4092 
Q 1497 4750 2381 4750 
Q 2619 4750 2861 4703 
Q 3103 4656 3366 4563 
z
" transform="scale(0.015625)"/>
       </defs>
       <use xlink:href="#DejaVuSans-30"/>
       <use xlink:href="#DejaVuSans-2e" x="63.623047"/>
       <use xlink:href="#DejaVuSans-36" x="95.410156"/>
      </g>
     </g>
    </g>
    <g id="ytick_5">
     <g id="line2d_14">
      <path d="M 42.593438 122.913879 
L 441.211619 122.913879 
" clip-path="url(#p357c358ecb)" style="fill: none; stroke: #cbcbcb"/>
     </g>
     <g id="line2d_15"/>
     <g id="text_10">
      <!-- 0.8 -->
      <g transform="translate(21.6 127.09302) scale(0.11 -0.11)">
       <defs>
        <path id="DejaVuSans-38" d="M 2034 2216 
Q 1584 2216 1326 1975 
Q 1069 1734 1069 1313 
Q 1069 891 1326 650 
Q 1584 409 2034 409 
Q 2484 409 2743 651 
Q 3003 894 3003 1313 
Q 3003 1734 2745 1975 
Q 2488 2216 2034 2216 
z
M 1403 2484 
Q 997 2584 770 2862 
Q 544 3141 544 3541 
Q 544 4100 942 4425 
Q 1341 4750 2034 4750 
Q 2731 4750 3128 4425 
Q 3525 4100 3525 3541 
Q 3525 3141 3298 2862 
Q 3072 2584 2669 2484 
Q 3125 2378 3379 2068 
Q 3634 1759 3634 1313 
Q 3634 634 3220 271 
Q 2806 -91 2034 -91 
Q 1263 -91 848 271 
Q 434 634 434 1313 
Q 434 1759 690 2068 
Q 947 2378 1403 2484 
z
M 1172 3481 
Q 1172 3119 1398 2916 
Q 1625 2713 2034 2713 
Q 2441 2713 2670 2916 
Q 2900 3119 2900 3481 
Q 2900 3844 2670 4047 
Q 2441 4250 2034 4250 
Q 1625 4250 1398 4047 
Q 1172 3844 1172 3481 
z
" transform="scale(0.015625)"/>
       </defs>
       <use xlink:href="#DejaVuSans-30"/>
       <use xlink:href="#DejaVuSans-2e" x="63.623047"/>
       <use xlink:href="#DejaVuSans-38" x="95.410156"/>
      </g>
     </g>
    </g>
   </g>
   <g id="patch_3">
    <path d="M 50.565801 386.358261 
L 114.34471 386.358261 
L 114.34471 96.569441 
L 50.565801 96.569441 
z
" clip-path="url(#p357c358ecb)" style="fill: #1b86ba"/>
   </g>
   <g id="patch_4">
    <path d="M 130.289438 386.358261 
L 194.068347 386.358261 
L 194.068347 162.430536 
L 130.289438 162.430536 
z
" clip-path="url(#p357c358ecb)" style="fill: #e36149"/>
   </g>
   <g id="patch_5">
    <path d="M 210.013074 386.358261 
L 273.791983 386.358261 
L 273.791983 228.291632 
L 210.013074 228.291632 
z
" clip-path="url(#p357c358ecb)" style="fill: #cfa64e"/>
   </g>
   <g id="patch_6">
    <path d="M 289.73671 386.358261 
L 353.515619 386.358261 
L 353.515619 254.63607 
L 289.73671 254.63607 
z
" clip-path="url(#p357c358ecb)" style="fill: #6e8857"/>
   </g>
   <g id="patch_7">
    <path d="M 369.460347 386.358261 
L 433.239256 386.358261 
L 433.239256 294.152727 
L 369.460347 294.152727 
z
" clip-path="url(#p357c358ecb)" style="fill: #8b8b8b"/>
   </g>
   <g id="line2d_16">
    <path clip-path="url(#p357c358ecb)" style="fill: none; stroke: #424242; stroke-width: 7.2"/>
   </g>
   <g id="line2d_17">
    <path clip-path="url(#p357c358ecb)" style="fill: none; stroke: #424242; stroke-width: 7.2"/>
   </g>
   <g id="line2d_18">
    <path clip-path="url(#p357c358ecb)" style="fill: none; stroke: #424242; stroke-width: 7.2"/>
   </g>
   <g id="line2d_19">
    <path clip-path="url(#p357c358ecb)" style="fill: none; stroke: #424242; stroke-width: 7.2"/>
   </g>
   <g id="line2d_20">
    <path clip-path="url(#p357c358ecb)" style="fill: none; stroke: #424242; stroke-width: 7.2"/>
   </g>
   <g id="patch_8">
    <path d="M 42.593438 386.358261 
L 42.593438 82.08 
" style="fill: none; stroke: #f0f0f0; stroke-width: 3; stroke-linejoin: miter; stroke-linecap: square"/>
   </g>
   <g id="patch_9">
    <path d="M 441.211619 386.358261 
L 441.211619 82.08 
" style="fill: none; stroke: #f0f0f0; stroke-width: 3; stroke-linejoin: miter; stroke-linecap: square"/>
   </g>
   <g id="patch_10">
    <path d="M 42.593438 386.358261 
L 441.211619 386.358261 
" style="fill: none; stroke: #f0f0f0; stroke-width: 3; stroke-linejoin: miter; stroke-linecap: square"/>
   </g>
   <g id="patch_11">
    <path d="M 42.593438 82.08 
L 441.211619 82.08 
" style="fill: none; stroke: #f0f0f0; stroke-width: 3; stroke-linejoin: miter; stroke-linecap: square"/>
   </g>
   <g id="text_11">
    <!-- Based on : Degree centrality -->
    <g transform="translate(127.362528 76.08) scale(0.16 -0.16)">
     <defs>
      <path id="DejaVuSans-42" d="M 1259 2228 
L 1259 519 
L 2272 519 
Q 2781 519 3026 730 
Q 3272 941 3272 1375 
Q 3272 1813 3026 2020 
Q 2781 2228 2272 2228 
L 1259 2228 
z
M 1259 4147 
L 1259 2741 
L 2194 2741 
Q 2656 2741 2882 2914 
Q 3109 3088 3109 3444 
Q 3109 3797 2882 3972 
Q 2656 4147 2194 4147 
L 1259 4147 
z
M 628 4666 
L 2241 4666 
Q 2963 4666 3353 4366 
Q 3744 4066 3744 3513 
Q 3744 3084 3544 2831 
Q 3344 2578 2956 2516 
Q 3422 2416 3680 2098 
Q 3938 1781 3938 1306 
Q 3938 681 3513 340 
Q 3088 0 2303 0 
L 628 0 
L 628 4666 
z
" transform="scale(0.015625)"/>
      <path id="DejaVuSans-64" d="M 2906 2969 
L 2906 4863 
L 3481 4863 
L 3481 0 
L 2906 0 
L 2906 525 
Q 2725 213 2448 61 
Q 2172 -91 1784 -91 
Q 1150 -91 751 415 
Q 353 922 353 1747 
Q 353 2572 751 3078 
Q 1150 3584 1784 3584 
Q 2172 3584 2448 3432 
Q 2725 3281 2906 2969 
z
M 947 1747 
Q 947 1113 1208 752 
Q 1469 391 1925 391 
Q 2381 391 2643 752 
Q 2906 1113 2906 1747 
Q 2906 2381 2643 2742 
Q 2381 3103 1925 3103 
Q 1469 3103 1208 2742 
Q 947 2381 947 1747 
z
" transform="scale(0.015625)"/>
      <path id="DejaVuSans-3a" d="M 750 794 
L 1409 794 
L 1409 0 
L 750 0 
L 750 794 
z
M 750 3309 
L 1409 3309 
L 1409 2516 
L 750 2516 
L 750 3309 
z
" transform="scale(0.015625)"/>
      <path id="DejaVuSans-44" d="M 1259 4147 
L 1259 519 
L 2022 519 
Q 2988 519 3436 956 
Q 3884 1394 3884 2338 
Q 3884 3275 3436 3711 
Q 2988 4147 2022 4147 
L 1259 4147 
z
M 628 4666 
L 1925 4666 
Q 3281 4666 3915 4102 
Q 4550 3538 4550 2338 
Q 4550 1131 3912 565 
Q 3275 0 1925 0 
L 628 0 
L 628 4666 
z
" transform="scale(0.015625)"/>
      <path id="DejaVuSans-67" d="M 2906 1791 
Q 2906 2416 2648 2759 
Q 2391 3103 1925 3103 
Q 1463 3103 1205 2759 
Q 947 2416 947 1791 
Q 947 1169 1205 825 
Q 1463 481 1925 481 
Q 2391 481 2648 825 
Q 2906 1169 2906 1791 
z
M 3481 434 
Q 3481 -459 3084 -895 
Q 2688 -1331 1869 -1331 
Q 1566 -1331 1297 -1286 
Q 1028 -1241 775 -1147 
L 775 -588 
Q 1028 -725 1275 -790 
Q 1522 -856 1778 -856 
Q 2344 -856 2625 -561 
Q 2906 -266 2906 331 
L 2906 616 
Q 2728 306 2450 153 
Q 2172 0 1784 0 
Q 1141 0 747 490 
Q 353 981 353 1791 
Q 353 2603 747 3093 
Q 1141 3584 1784 3584 
Q 2172 3584 2450 3431 
Q 2728 3278 2906 2969 
L 2906 3500 
L 3481 3500 
L 3481 434 
z
" transform="scale(0.015625)"/>
      <path id="DejaVuSans-69" d="M 603 3500 
L 1178 3500 
L 1178 0 
L 603 0 
L 603 3500 
z
M 603 4863 
L 1178 4863 
L 1178 4134 
L 603 4134 
L 603 4863 
z
" transform="scale(0.015625)"/>
     </defs>
     <use xlink:href="#DejaVuSans-42"/>
     <use xlink:href="#DejaVuSans-61" x="68.603516"/>
     <use xlink:href="#DejaVuSans-73" x="129.882812"/>
     <use xlink:href="#DejaVuSans-65" x="181.982422"/>
     <use xlink:href="#DejaVuSans-64" x="243.505859"/>
     <use xlink:href="#DejaVuSans-20" x="306.982422"/>
     <use xlink:href="#DejaVuSans-6f" x="338.769531"/>
     <use xlink:href="#DejaVuSans-6e" x="399.951172"/>
     <use xlink:href="#DejaVuSans-20" x="463.330078"/>
     <use xlink:href="#DejaVuSans-3a" x="495.117188"/>
     <use xlink:href="#DejaVuSans-20" x="528.808594"/>
     <use xlink:href="#DejaVuSans-44" x="560.595703"/>
     <use xlink:href="#DejaVuSans-65" x="637.597656"/>
     <use xlink:href="#DejaVuSans-67" x="699.121094"/>
     <use xlink:href="#DejaVuSans-72" x="762.597656"/>
     <use xlink:href="#DejaVuSans-65" x="801.460938"/>
     <use xlink:href="#DejaVuSans-65" x="862.984375"/>
     <use xlink:href="#DejaVuSans-20" x="924.507812"/>
     <use xlink:href="#DejaVuSans-63" x="956.294922"/>
     <use xlink:href="#DejaVuSans-65" x="1011.275391"/>
     <use xlink:href="#DejaVuSans-6e" x="1072.798828"/>
     <use xlink:href="#DejaVuSans-74" x="1136.177734"/>
     <use xlink:href="#DejaVuSans-72" x="1175.386719"/>
     <use xlink:href="#DejaVuSans-61" x="1216.5"/>
     <use xlink:href="#DejaVuSans-6c" x="1277.779297"/>
     <use xlink:href="#DejaVuSans-69" x="1305.5625"/>
     <use xlink:href="#DejaVuSans-74" x="1333.345703"/>
     <use xlink:href="#DejaVuSans-79" x="1372.554688"/>
    </g>
   </g>
  </g>
  <g id="axes_2">
   <g id="patch_12">
    <path d="M 520.935256 386.358261 
L 919.553437 386.358261 
L 919.553437 82.08 
L 520.935256 82.08 
z
" style="fill: #f0f0f0"/>
   </g>
   <g id="matplotlib.axis_3">
    <g id="xtick_6">
     <g id="line2d_21"/>
     <g id="text_12">
      <!-- Walter -->
      <g transform="translate(543.807036 404.267041) rotate(-10) scale(0.11 -0.11)">
       <use xlink:href="#DejaVuSans-57"/>
       <use xlink:href="#DejaVuSans-61" x="92.501953"/>
       <use xlink:href="#DejaVuSans-6c" x="153.78125"/>
       <use xlink:href="#DejaVuSans-74" x="181.564453"/>
       <use xlink:href="#DejaVuSans-65" x="220.773438"/>
       <use xlink:href="#DejaVuSans-72" x="282.296875"/>
      </g>
     </g>
    </g>
    <g id="xtick_7">
     <g id="line2d_22"/>
     <g id="text_13">
      <!-- Jesse -->
      <g transform="translate(627.14107 402.99382) rotate(-10) scale(0.11 -0.11)">
       <use xlink:href="#DejaVuSans-4a"/>
       <use xlink:href="#DejaVuSans-65" x="29.492188"/>
       <use xlink:href="#DejaVuSans-73" x="91.015625"/>
       <use xlink:href="#DejaVuSans-73" x="143.115234"/>
       <use xlink:href="#DejaVuSans-65" x="195.214844"/>
      </g>
     </g>
    </g>
    <g id="xtick_8">
     <g id="line2d_23"/>
     <g id="text_14">
      <!-- Hank -->
      <g transform="translate(706.809696 403.013219) rotate(-10) scale(0.11 -0.11)">
       <use xlink:href="#DejaVuSans-48"/>
       <use xlink:href="#DejaVuSans-61" x="75.195312"/>
       <use xlink:href="#DejaVuSans-6e" x="136.474609"/>
       <use xlink:href="#DejaVuSans-6b" x="199.853516"/>
      </g>
     </g>
    </g>
    <g id="xtick_9">
     <g id="line2d_24"/>
     <g id="text_15">
      <!-- Skyler -->
      <g transform="translate(783.846269 403.960823) rotate(-10) scale(0.11 -0.11)">
       <use xlink:href="#DejaVuSans-53"/>
       <use xlink:href="#DejaVuSans-6b" x="63.476562"/>
       <use xlink:href="#DejaVuSans-79" x="117.761719"/>
       <use xlink:href="#DejaVuSans-6c" x="176.941406"/>
       <use xlink:href="#DejaVuSans-65" x="204.724609"/>
       <use xlink:href="#DejaVuSans-72" x="266.248047"/>
      </g>
     </g>
    </g>
    <g id="xtick_10">
     <g id="line2d_25"/>
     <g id="text_16">
      <!-- Tuco Salamanca -->
      <g transform="translate(836.375978 413.550869) rotate(-10) scale(0.11 -0.11)">
       <use xlink:href="#DejaVuSans-54"/>
       <use xlink:href="#DejaVuSans-75" x="45.958984"/>
       <use xlink:href="#DejaVuSans-63" x="109.337891"/>
       <use xlink:href="#DejaVuSans-6f" x="164.318359"/>
       <use xlink:href="#DejaVuSans-20" x="225.5"/>
       <use xlink:href="#DejaVuSans-53" x="257.287109"/>
       <use xlink:href="#DejaVuSans-61" x="320.763672"/>
       <use xlink:href="#DejaVuSans-6c" x="382.042969"/>
       <use xlink:href="#DejaVuSans-61" x="409.826172"/>
       <use xlink:href="#DejaVuSans-6d" x="471.105469"/>
       <use xlink:href="#DejaVuSans-61" x="568.517578"/>
       <use xlink:href="#DejaVuSans-6e" x="629.796875"/>
       <use xlink:href="#DejaVuSans-63" x="693.175781"/>
       <use xlink:href="#DejaVuSans-61" x="748.15625"/>
      </g>
     </g>
    </g>
   </g>
   <g id="matplotlib.axis_4">
    <g id="ytick_6">
     <g id="line2d_26">
      <path d="M 520.935256 386.358261 
L 919.553437 386.358261 
" clip-path="url(#p87f130310c)" style="fill: none; stroke: #cbcbcb"/>
     </g>
     <g id="line2d_27"/>
     <g id="text_17">
      <!-- 0.0 -->
      <g transform="translate(499.941818 390.537401) scale(0.11 -0.11)">
       <use xlink:href="#DejaVuSans-30"/>
       <use xlink:href="#DejaVuSans-2e" x="63.623047"/>
       <use xlink:href="#DejaVuSans-30" x="95.410156"/>
      </g>
     </g>
    </g>
    <g id="ytick_7">
     <g id="line2d_28">
      <path d="M 520.935256 321.445565 
L 919.553437 321.445565 
" clip-path="url(#p87f130310c)" style="fill: none; stroke: #cbcbcb"/>
     </g>
     <g id="line2d_29"/>
     <g id="text_18">
      <!-- 0.2 -->
      <g transform="translate(499.941818 325.624706) scale(0.11 -0.11)">
       <use xlink:href="#DejaVuSans-30"/>
       <use xlink:href="#DejaVuSans-2e" x="63.623047"/>
       <use xlink:href="#DejaVuSans-32" x="95.410156"/>
      </g>
     </g>
    </g>
    <g id="ytick_8">
     <g id="line2d_30">
      <path d="M 520.935256 256.53287 
L 919.553437 256.53287 
" clip-path="url(#p87f130310c)" style="fill: none; stroke: #cbcbcb"/>
     </g>
     <g id="line2d_31"/>
     <g id="text_19">
      <!-- 0.4 -->
      <g transform="translate(499.941818 260.71201) scale(0.11 -0.11)">
       <use xlink:href="#DejaVuSans-30"/>
       <use xlink:href="#DejaVuSans-2e" x="63.623047"/>
       <use xlink:href="#DejaVuSans-34" x="95.410156"/>
      </g>
     </g>
    </g>
    <g id="ytick_9">
     <g id="line2d_32">
      <path d="M 520.935256 191.620174 
L 919.553437 191.620174 
" clip-path="url(#p87f130310c)" style="fill: none; stroke: #cbcbcb"/>
     </g>
     <g id="line2d_33"/>
     <g id="text_20">
      <!-- 0.6 -->
      <g transform="translate(499.941818 195.799315) scale(0.11 -0.11)">
       <use xlink:href="#DejaVuSans-30"/>
       <use xlink:href="#DejaVuSans-2e" x="63.623047"/>
       <use xlink:href="#DejaVuSans-36" x="95.410156"/>
      </g>
     </g>
    </g>
    <g id="ytick_10">
     <g id="line2d_34">
      <path d="M 520.935256 126.707478 
L 919.553437 126.707478 
" clip-path="url(#p87f130310c)" style="fill: none; stroke: #cbcbcb"/>
     </g>
     <g id="line2d_35"/>
     <g id="text_21">
      <!-- 0.8 -->
      <g transform="translate(499.941818 130.886619) scale(0.11 -0.11)">
       <use xlink:href="#DejaVuSans-30"/>
       <use xlink:href="#DejaVuSans-2e" x="63.623047"/>
       <use xlink:href="#DejaVuSans-38" x="95.410156"/>
      </g>
     </g>
    </g>
   </g>
   <g id="patch_13">
    <path d="M 528.907619 386.358261 
L 592.686528 386.358261 
L 592.686528 96.569441 
L 528.907619 96.569441 
z
" clip-path="url(#p87f130310c)" style="fill: #1b86ba"/>
   </g>
   <g id="patch_14">
    <path d="M 608.631256 386.358261 
L 672.410165 386.358261 
L 672.410165 140.476838 
L 608.631256 140.476838 
z
" clip-path="url(#p87f130310c)" style="fill: #e36149"/>
   </g>
   <g id="patch_15">
    <path d="M 688.354892 386.358261 
L 752.133801 386.358261 
L 752.133801 172.829657 
L 688.354892 172.829657 
z
" clip-path="url(#p87f130310c)" style="fill: #cfa64e"/>
   </g>
   <g id="patch_16">
    <path d="M 768.078528 386.358261 
L 831.857438 386.358261 
L 831.857438 188.453701 
L 768.078528 188.453701 
z
" clip-path="url(#p87f130310c)" style="fill: #6e8857"/>
   </g>
   <g id="patch_17">
    <path d="M 847.802165 386.358261 
L 911.581074 386.358261 
L 911.581074 197.658564 
L 847.802165 197.658564 
z
" clip-path="url(#p87f130310c)" style="fill: #8b8b8b"/>
   </g>
   <g id="line2d_36">
    <path clip-path="url(#p87f130310c)" style="fill: none; stroke: #424242; stroke-width: 7.2"/>
   </g>
   <g id="line2d_37">
    <path clip-path="url(#p87f130310c)" style="fill: none; stroke: #424242; stroke-width: 7.2"/>
   </g>
   <g id="line2d_38">
    <path clip-path="url(#p87f130310c)" style="fill: none; stroke: #424242; stroke-width: 7.2"/>
   </g>
   <g id="line2d_39">
    <path clip-path="url(#p87f130310c)" style="fill: none; stroke: #424242; stroke-width: 7.2"/>
   </g>
   <g id="line2d_40">
    <path clip-path="url(#p87f130310c)" style="fill: none; stroke: #424242; stroke-width: 7.2"/>
   </g>
   <g id="patch_18">
    <path d="M 520.935256 386.358261 
L 520.935256 82.08 
" style="fill: none; stroke: #f0f0f0; stroke-width: 3; stroke-linejoin: miter; stroke-linecap: square"/>
   </g>
   <g id="patch_19">
    <path d="M 919.553437 386.358261 
L 919.553437 82.08 
" style="fill: none; stroke: #f0f0f0; stroke-width: 3; stroke-linejoin: miter; stroke-linecap: square"/>
   </g>
   <g id="patch_20">
    <path d="M 520.935256 386.358261 
L 919.553437 386.358261 
" style="fill: none; stroke: #f0f0f0; stroke-width: 3; stroke-linejoin: miter; stroke-linecap: square"/>
   </g>
   <g id="patch_21">
    <path d="M 520.935256 82.08 
L 919.553437 82.08 
" style="fill: none; stroke: #f0f0f0; stroke-width: 3; stroke-linejoin: miter; stroke-linecap: square"/>
   </g>
   <g id="text_22">
    <!-- Based on : Closeness centrality -->
    <g transform="translate(594.698097 76.08) scale(0.16 -0.16)">
     <defs>
      <path id="DejaVuSans-43" d="M 4122 4306 
L 4122 3641 
Q 3803 3938 3442 4084 
Q 3081 4231 2675 4231 
Q 1875 4231 1450 3742 
Q 1025 3253 1025 2328 
Q 1025 1406 1450 917 
Q 1875 428 2675 428 
Q 3081 428 3442 575 
Q 3803 722 4122 1019 
L 4122 359 
Q 3791 134 3420 21 
Q 3050 -91 2638 -91 
Q 1578 -91 968 557 
Q 359 1206 359 2328 
Q 359 3453 968 4101 
Q 1578 4750 2638 4750 
Q 3056 4750 3426 4639 
Q 3797 4528 4122 4306 
z
" transform="scale(0.015625)"/>
     </defs>
     <use xlink:href="#DejaVuSans-42"/>
     <use xlink:href="#DejaVuSans-61" x="68.603516"/>
     <use xlink:href="#DejaVuSans-73" x="129.882812"/>
     <use xlink:href="#DejaVuSans-65" x="181.982422"/>
     <use xlink:href="#DejaVuSans-64" x="243.505859"/>
     <use xlink:href="#DejaVuSans-20" x="306.982422"/>
     <use xlink:href="#DejaVuSans-6f" x="338.769531"/>
     <use xlink:href="#DejaVuSans-6e" x="399.951172"/>
     <use xlink:href="#DejaVuSans-20" x="463.330078"/>
     <use xlink:href="#DejaVuSans-3a" x="495.117188"/>
     <use xlink:href="#DejaVuSans-20" x="528.808594"/>
     <use xlink:href="#DejaVuSans-43" x="560.595703"/>
     <use xlink:href="#DejaVuSans-6c" x="630.419922"/>
     <use xlink:href="#DejaVuSans-6f" x="658.203125"/>
     <use xlink:href="#DejaVuSans-73" x="719.384766"/>
     <use xlink:href="#DejaVuSans-65" x="771.484375"/>
     <use xlink:href="#DejaVuSans-6e" x="833.007812"/>
     <use xlink:href="#DejaVuSans-65" x="896.386719"/>
     <use xlink:href="#DejaVuSans-73" x="957.910156"/>
     <use xlink:href="#DejaVuSans-73" x="1010.009766"/>
     <use xlink:href="#DejaVuSans-20" x="1062.109375"/>
     <use xlink:href="#DejaVuSans-63" x="1093.896484"/>
     <use xlink:href="#DejaVuSans-65" x="1148.876953"/>
     <use xlink:href="#DejaVuSans-6e" x="1210.400391"/>
     <use xlink:href="#DejaVuSans-74" x="1273.779297"/>
     <use xlink:href="#DejaVuSans-72" x="1312.988281"/>
     <use xlink:href="#DejaVuSans-61" x="1354.101562"/>
     <use xlink:href="#DejaVuSans-6c" x="1415.380859"/>
     <use xlink:href="#DejaVuSans-69" x="1443.164062"/>
     <use xlink:href="#DejaVuSans-74" x="1470.947266"/>
     <use xlink:href="#DejaVuSans-79" x="1510.15625"/>
    </g>
   </g>
  </g>
  <g id="axes_3">
   <g id="patch_22">
    <path d="M 42.593438 781.92 
L 441.211619 781.92 
L 441.211619 477.641739 
L 42.593438 477.641739 
z
" style="fill: #f0f0f0"/>
   </g>
   <g id="matplotlib.axis_5">
    <g id="xtick_11">
     <g id="line2d_41"/>
     <g id="text_23">
      <!-- Walter -->
      <g transform="translate(65.465218 799.82878) rotate(-10) scale(0.11 -0.11)">
       <use xlink:href="#DejaVuSans-57"/>
       <use xlink:href="#DejaVuSans-61" x="92.501953"/>
       <use xlink:href="#DejaVuSans-6c" x="153.78125"/>
       <use xlink:href="#DejaVuSans-74" x="181.564453"/>
       <use xlink:href="#DejaVuSans-65" x="220.773438"/>
       <use xlink:href="#DejaVuSans-72" x="282.296875"/>
      </g>
     </g>
    </g>
    <g id="xtick_12">
     <g id="line2d_42"/>
     <g id="text_24">
      <!-- Jesse -->
      <g transform="translate(148.799252 798.555559) rotate(-10) scale(0.11 -0.11)">
       <use xlink:href="#DejaVuSans-4a"/>
       <use xlink:href="#DejaVuSans-65" x="29.492188"/>
       <use xlink:href="#DejaVuSans-73" x="91.015625"/>
       <use xlink:href="#DejaVuSans-73" x="143.115234"/>
       <use xlink:href="#DejaVuSans-65" x="195.214844"/>
      </g>
     </g>
    </g>
    <g id="xtick_13">
     <g id="line2d_43"/>
     <g id="text_25">
      <!-- Tuco Salamanca -->
      <g transform="translate(198.586887 809.112608) rotate(-10) scale(0.11 -0.11)">
       <use xlink:href="#DejaVuSans-54"/>
       <use xlink:href="#DejaVuSans-75" x="45.958984"/>
       <use xlink:href="#DejaVuSans-63" x="109.337891"/>
       <use xlink:href="#DejaVuSans-6f" x="164.318359"/>
       <use xlink:href="#DejaVuSans-20" x="225.5"/>
       <use xlink:href="#DejaVuSans-53" x="257.287109"/>
       <use xlink:href="#DejaVuSans-61" x="320.763672"/>
       <use xlink:href="#DejaVuSans-6c" x="382.042969"/>
       <use xlink:href="#DejaVuSans-61" x="409.826172"/>
       <use xlink:href="#DejaVuSans-6d" x="471.105469"/>
       <use xlink:href="#DejaVuSans-61" x="568.517578"/>
       <use xlink:href="#DejaVuSans-6e" x="629.796875"/>
       <use xlink:href="#DejaVuSans-63" x="693.175781"/>
       <use xlink:href="#DejaVuSans-61" x="748.15625"/>
      </g>
     </g>
    </g>
    <g id="xtick_14">
     <g id="line2d_44"/>
     <g id="text_26">
      <!-- Hank -->
      <g transform="translate(308.191514 798.574959) rotate(-10) scale(0.11 -0.11)">
       <use xlink:href="#DejaVuSans-48"/>
       <use xlink:href="#DejaVuSans-61" x="75.195312"/>
       <use xlink:href="#DejaVuSans-6e" x="136.474609"/>
       <use xlink:href="#DejaVuSans-6b" x="199.853516"/>
      </g>
     </g>
    </g>
    <g id="xtick_15">
     <g id="line2d_45"/>
     <g id="text_27">
      <!-- Skyler -->
      <g transform="translate(385.228087 799.522562) rotate(-10) scale(0.11 -0.11)">
       <use xlink:href="#DejaVuSans-53"/>
       <use xlink:href="#DejaVuSans-6b" x="63.476562"/>
       <use xlink:href="#DejaVuSans-79" x="117.761719"/>
       <use xlink:href="#DejaVuSans-6c" x="176.941406"/>
       <use xlink:href="#DejaVuSans-65" x="204.724609"/>
       <use xlink:href="#DejaVuSans-72" x="266.248047"/>
      </g>
     </g>
    </g>
   </g>
   <g id="matplotlib.axis_6">
    <g id="ytick_11">
     <g id="line2d_46">
      <path d="M 42.593438 781.92 
L 441.211619 781.92 
" clip-path="url(#pa6ba6c88b0)" style="fill: none; stroke: #cbcbcb"/>
     </g>
     <g id="line2d_47"/>
     <g id="text_28">
      <!-- 0.0 -->
      <g transform="translate(21.6 786.099141) scale(0.11 -0.11)">
       <use xlink:href="#DejaVuSans-30"/>
       <use xlink:href="#DejaVuSans-2e" x="63.623047"/>
       <use xlink:href="#DejaVuSans-30" x="95.410156"/>
      </g>
     </g>
    </g>
    <g id="ytick_12">
     <g id="line2d_48">
      <path d="M 42.593438 721.365104 
L 441.211619 721.365104 
" clip-path="url(#pa6ba6c88b0)" style="fill: none; stroke: #cbcbcb"/>
     </g>
     <g id="line2d_49"/>
     <g id="text_29">
      <!-- 0.1 -->
      <g transform="translate(21.6 725.544244) scale(0.11 -0.11)">
       <defs>
        <path id="DejaVuSans-31" d="M 794 531 
L 1825 531 
L 1825 4091 
L 703 3866 
L 703 4441 
L 1819 4666 
L 2450 4666 
L 2450 531 
L 3481 531 
L 3481 0 
L 794 0 
L 794 531 
z
" transform="scale(0.015625)"/>
       </defs>
       <use xlink:href="#DejaVuSans-30"/>
       <use xlink:href="#DejaVuSans-2e" x="63.623047"/>
       <use xlink:href="#DejaVuSans-31" x="95.410156"/>
      </g>
     </g>
    </g>
    <g id="ytick_13">
     <g id="line2d_50">
      <path d="M 42.593438 660.810208 
L 441.211619 660.810208 
" clip-path="url(#pa6ba6c88b0)" style="fill: none; stroke: #cbcbcb"/>
     </g>
     <g id="line2d_51"/>
     <g id="text_30">
      <!-- 0.2 -->
      <g transform="translate(21.6 664.989348) scale(0.11 -0.11)">
       <use xlink:href="#DejaVuSans-30"/>
       <use xlink:href="#DejaVuSans-2e" x="63.623047"/>
       <use xlink:href="#DejaVuSans-32" x="95.410156"/>
      </g>
     </g>
    </g>
    <g id="ytick_14">
     <g id="line2d_52">
      <path d="M 42.593438 600.255311 
L 441.211619 600.255311 
" clip-path="url(#pa6ba6c88b0)" style="fill: none; stroke: #cbcbcb"/>
     </g>
     <g id="line2d_53"/>
     <g id="text_31">
      <!-- 0.3 -->
      <g transform="translate(21.6 604.434452) scale(0.11 -0.11)">
       <defs>
        <path id="DejaVuSans-33" d="M 2597 2516 
Q 3050 2419 3304 2112 
Q 3559 1806 3559 1356 
Q 3559 666 3084 287 
Q 2609 -91 1734 -91 
Q 1441 -91 1130 -33 
Q 819 25 488 141 
L 488 750 
Q 750 597 1062 519 
Q 1375 441 1716 441 
Q 2309 441 2620 675 
Q 2931 909 2931 1356 
Q 2931 1769 2642 2001 
Q 2353 2234 1838 2234 
L 1294 2234 
L 1294 2753 
L 1863 2753 
Q 2328 2753 2575 2939 
Q 2822 3125 2822 3475 
Q 2822 3834 2567 4026 
Q 2313 4219 1838 4219 
Q 1578 4219 1281 4162 
Q 984 4106 628 3988 
L 628 4550 
Q 988 4650 1302 4700 
Q 1616 4750 1894 4750 
Q 2613 4750 3031 4423 
Q 3450 4097 3450 3541 
Q 3450 3153 3228 2886 
Q 3006 2619 2597 2516 
z
" transform="scale(0.015625)"/>
       </defs>
       <use xlink:href="#DejaVuSans-30"/>
       <use xlink:href="#DejaVuSans-2e" x="63.623047"/>
       <use xlink:href="#DejaVuSans-33" x="95.410156"/>
      </g>
     </g>
    </g>
    <g id="ytick_15">
     <g id="line2d_54">
      <path d="M 42.593438 539.700415 
L 441.211619 539.700415 
" clip-path="url(#pa6ba6c88b0)" style="fill: none; stroke: #cbcbcb"/>
     </g>
     <g id="line2d_55"/>
     <g id="text_32">
      <!-- 0.4 -->
      <g transform="translate(21.6 543.879556) scale(0.11 -0.11)">
       <use xlink:href="#DejaVuSans-30"/>
       <use xlink:href="#DejaVuSans-2e" x="63.623047"/>
       <use xlink:href="#DejaVuSans-34" x="95.410156"/>
      </g>
     </g>
    </g>
    <g id="ytick_16">
     <g id="line2d_56">
      <path d="M 42.593438 479.145519 
L 441.211619 479.145519 
" clip-path="url(#pa6ba6c88b0)" style="fill: none; stroke: #cbcbcb"/>
     </g>
     <g id="line2d_57"/>
     <g id="text_33">
      <!-- 0.5 -->
      <g transform="translate(21.6 483.32466) scale(0.11 -0.11)">
       <defs>
        <path id="DejaVuSans-35" d="M 691 4666 
L 3169 4666 
L 3169 4134 
L 1269 4134 
L 1269 2991 
Q 1406 3038 1543 3061 
Q 1681 3084 1819 3084 
Q 2600 3084 3056 2656 
Q 3513 2228 3513 1497 
Q 3513 744 3044 326 
Q 2575 -91 1722 -91 
Q 1428 -91 1123 -41 
Q 819 9 494 109 
L 494 744 
Q 775 591 1075 516 
Q 1375 441 1709 441 
Q 2250 441 2565 725 
Q 2881 1009 2881 1497 
Q 2881 1984 2565 2268 
Q 2250 2553 1709 2553 
Q 1456 2553 1204 2497 
Q 953 2441 691 2322 
L 691 4666 
z
" transform="scale(0.015625)"/>
       </defs>
       <use xlink:href="#DejaVuSans-30"/>
       <use xlink:href="#DejaVuSans-2e" x="63.623047"/>
       <use xlink:href="#DejaVuSans-35" x="95.410156"/>
      </g>
     </g>
    </g>
   </g>
   <g id="patch_23">
    <path d="M 50.565801 781.92 
L 114.34471 781.92 
L 114.34471 492.13118 
L 50.565801 492.13118 
z
" clip-path="url(#pa6ba6c88b0)" style="fill: #1b86ba"/>
   </g>
   <g id="patch_24">
    <path d="M 130.289438 781.92 
L 194.068347 781.92 
L 194.068347 642.105473 
L 130.289438 642.105473 
z
" clip-path="url(#pa6ba6c88b0)" style="fill: #e36149"/>
   </g>
   <g id="patch_25">
    <path d="M 210.013074 781.92 
L 273.791983 781.92 
L 273.791983 719.884873 
L 210.013074 719.884873 
z
" clip-path="url(#pa6ba6c88b0)" style="fill: #cfa64e"/>
   </g>
   <g id="patch_26">
    <path d="M 289.73671 781.92 
L 353.515619 781.92 
L 353.515619 725.940363 
L 289.73671 725.940363 
z
" clip-path="url(#pa6ba6c88b0)" style="fill: #6e8857"/>
   </g>
   <g id="patch_27">
    <path d="M 369.460347 781.92 
L 433.239256 781.92 
L 433.239256 758.034458 
L 369.460347 758.034458 
z
" clip-path="url(#pa6ba6c88b0)" style="fill: #8b8b8b"/>
   </g>
   <g id="line2d_58">
    <path clip-path="url(#pa6ba6c88b0)" style="fill: none; stroke: #424242; stroke-width: 7.2"/>
   </g>
   <g id="line2d_59">
    <path clip-path="url(#pa6ba6c88b0)" style="fill: none; stroke: #424242; stroke-width: 7.2"/>
   </g>
   <g id="line2d_60">
    <path clip-path="url(#pa6ba6c88b0)" style="fill: none; stroke: #424242; stroke-width: 7.2"/>
   </g>
   <g id="line2d_61">
    <path clip-path="url(#pa6ba6c88b0)" style="fill: none; stroke: #424242; stroke-width: 7.2"/>
   </g>
   <g id="line2d_62">
    <path clip-path="url(#pa6ba6c88b0)" style="fill: none; stroke: #424242; stroke-width: 7.2"/>
   </g>
   <g id="patch_28">
    <path d="M 42.593438 781.92 
L 42.593438 477.641739 
" style="fill: none; stroke: #f0f0f0; stroke-width: 3; stroke-linejoin: miter; stroke-linecap: square"/>
   </g>
   <g id="patch_29">
    <path d="M 441.211619 781.92 
L 441.211619 477.641739 
" style="fill: none; stroke: #f0f0f0; stroke-width: 3; stroke-linejoin: miter; stroke-linecap: square"/>
   </g>
   <g id="patch_30">
    <path d="M 42.593438 781.92 
L 441.211619 781.92 
" style="fill: none; stroke: #f0f0f0; stroke-width: 3; stroke-linejoin: miter; stroke-linecap: square"/>
   </g>
   <g id="patch_31">
    <path d="M 42.593438 477.641739 
L 441.211619 477.641739 
" style="fill: none; stroke: #f0f0f0; stroke-width: 3; stroke-linejoin: miter; stroke-linecap: square"/>
   </g>
   <g id="text_34">
    <!-- Based on : Betweenness centrality -->
    <g transform="translate(103.145028 471.641739) scale(0.16 -0.16)">
     <defs>
      <path id="DejaVuSans-77" d="M 269 3500 
L 844 3500 
L 1563 769 
L 2278 3500 
L 2956 3500 
L 3675 769 
L 4391 3500 
L 4966 3500 
L 4050 0 
L 3372 0 
L 2619 2869 
L 1863 0 
L 1184 0 
L 269 3500 
z
" transform="scale(0.015625)"/>
     </defs>
     <use xlink:href="#DejaVuSans-42"/>
     <use xlink:href="#DejaVuSans-61" x="68.603516"/>
     <use xlink:href="#DejaVuSans-73" x="129.882812"/>
     <use xlink:href="#DejaVuSans-65" x="181.982422"/>
     <use xlink:href="#DejaVuSans-64" x="243.505859"/>
     <use xlink:href="#DejaVuSans-20" x="306.982422"/>
     <use xlink:href="#DejaVuSans-6f" x="338.769531"/>
     <use xlink:href="#DejaVuSans-6e" x="399.951172"/>
     <use xlink:href="#DejaVuSans-20" x="463.330078"/>
     <use xlink:href="#DejaVuSans-3a" x="495.117188"/>
     <use xlink:href="#DejaVuSans-20" x="528.808594"/>
     <use xlink:href="#DejaVuSans-42" x="560.595703"/>
     <use xlink:href="#DejaVuSans-65" x="629.199219"/>
     <use xlink:href="#DejaVuSans-74" x="690.722656"/>
     <use xlink:href="#DejaVuSans-77" x="729.931641"/>
     <use xlink:href="#DejaVuSans-65" x="811.71875"/>
     <use xlink:href="#DejaVuSans-65" x="873.242188"/>
     <use xlink:href="#DejaVuSans-6e" x="934.765625"/>
     <use xlink:href="#DejaVuSans-6e" x="998.144531"/>
     <use xlink:href="#DejaVuSans-65" x="1061.523438"/>
     <use xlink:href="#DejaVuSans-73" x="1123.046875"/>
     <use xlink:href="#DejaVuSans-73" x="1175.146484"/>
     <use xlink:href="#DejaVuSans-20" x="1227.246094"/>
     <use xlink:href="#DejaVuSans-63" x="1259.033203"/>
     <use xlink:href="#DejaVuSans-65" x="1314.013672"/>
     <use xlink:href="#DejaVuSans-6e" x="1375.537109"/>
     <use xlink:href="#DejaVuSans-74" x="1438.916016"/>
     <use xlink:href="#DejaVuSans-72" x="1478.125"/>
     <use xlink:href="#DejaVuSans-61" x="1519.238281"/>
     <use xlink:href="#DejaVuSans-6c" x="1580.517578"/>
     <use xlink:href="#DejaVuSans-69" x="1608.300781"/>
     <use xlink:href="#DejaVuSans-74" x="1636.083984"/>
     <use xlink:href="#DejaVuSans-79" x="1675.292969"/>
    </g>
   </g>
  </g>
  <g id="axes_4">
   <g id="patch_32">
    <path d="M 520.935256 781.92 
L 919.553437 781.92 
L 919.553437 477.641739 
L 520.935256 477.641739 
z
" style="fill: #f0f0f0"/>
   </g>
   <g id="matplotlib.axis_7">
    <g id="xtick_16">
     <g id="line2d_63"/>
     <g id="text_35">
      <!-- Walter -->
      <g transform="translate(543.807036 799.82878) rotate(-10) scale(0.11 -0.11)">
       <use xlink:href="#DejaVuSans-57"/>
       <use xlink:href="#DejaVuSans-61" x="92.501953"/>
       <use xlink:href="#DejaVuSans-6c" x="153.78125"/>
       <use xlink:href="#DejaVuSans-74" x="181.564453"/>
       <use xlink:href="#DejaVuSans-65" x="220.773438"/>
       <use xlink:href="#DejaVuSans-72" x="282.296875"/>
      </g>
     </g>
    </g>
    <g id="xtick_17">
     <g id="line2d_64"/>
     <g id="text_36">
      <!-- Jesse -->
      <g transform="translate(627.14107 798.555559) rotate(-10) scale(0.11 -0.11)">
       <use xlink:href="#DejaVuSans-4a"/>
       <use xlink:href="#DejaVuSans-65" x="29.492188"/>
       <use xlink:href="#DejaVuSans-73" x="91.015625"/>
       <use xlink:href="#DejaVuSans-73" x="143.115234"/>
       <use xlink:href="#DejaVuSans-65" x="195.214844"/>
      </g>
     </g>
    </g>
    <g id="xtick_18">
     <g id="line2d_65"/>
     <g id="text_37">
      <!-- Hank -->
      <g transform="translate(706.809696 798.574959) rotate(-10) scale(0.11 -0.11)">
       <use xlink:href="#DejaVuSans-48"/>
       <use xlink:href="#DejaVuSans-61" x="75.195312"/>
       <use xlink:href="#DejaVuSans-6e" x="136.474609"/>
       <use xlink:href="#DejaVuSans-6b" x="199.853516"/>
      </g>
     </g>
    </g>
    <g id="xtick_19">
     <g id="line2d_66"/>
     <g id="text_38">
      <!-- Skyler -->
      <g transform="translate(783.846269 799.522562) rotate(-10) scale(0.11 -0.11)">
       <use xlink:href="#DejaVuSans-53"/>
       <use xlink:href="#DejaVuSans-6b" x="63.476562"/>
       <use xlink:href="#DejaVuSans-79" x="117.761719"/>
       <use xlink:href="#DejaVuSans-6c" x="176.941406"/>
       <use xlink:href="#DejaVuSans-65" x="204.724609"/>
       <use xlink:href="#DejaVuSans-72" x="266.248047"/>
      </g>
     </g>
    </g>
    <g id="xtick_20">
     <g id="line2d_67"/>
     <g id="text_39">
      <!-- DEA -->
      <g transform="translate(868.920335 797.635712) rotate(-10) scale(0.11 -0.11)">
       <defs>
        <path id="DejaVuSans-45" d="M 628 4666 
L 3578 4666 
L 3578 4134 
L 1259 4134 
L 1259 2753 
L 3481 2753 
L 3481 2222 
L 1259 2222 
L 1259 531 
L 3634 531 
L 3634 0 
L 628 0 
L 628 4666 
z
" transform="scale(0.015625)"/>
        <path id="DejaVuSans-41" d="M 2188 4044 
L 1331 1722 
L 3047 1722 
L 2188 4044 
z
M 1831 4666 
L 2547 4666 
L 4325 0 
L 3669 0 
L 3244 1197 
L 1141 1197 
L 716 0 
L 50 0 
L 1831 4666 
z
" transform="scale(0.015625)"/>
       </defs>
       <use xlink:href="#DejaVuSans-44"/>
       <use xlink:href="#DejaVuSans-45" x="77.001953"/>
       <use xlink:href="#DejaVuSans-41" x="140.185547"/>
      </g>
     </g>
    </g>
   </g>
   <g id="matplotlib.axis_8">
    <g id="ytick_17">
     <g id="line2d_68">
      <path d="M 520.935256 781.92 
L 919.553437 781.92 
" clip-path="url(#p537904fcdf)" style="fill: none; stroke: #cbcbcb"/>
     </g>
     <g id="line2d_69"/>
     <g id="text_40">
      <!-- 0.0 -->
      <g transform="translate(499.941818 786.099141) scale(0.11 -0.11)">
       <use xlink:href="#DejaVuSans-30"/>
       <use xlink:href="#DejaVuSans-2e" x="63.623047"/>
       <use xlink:href="#DejaVuSans-30" x="95.410156"/>
      </g>
     </g>
    </g>
    <g id="ytick_18">
     <g id="line2d_70">
      <path d="M 520.935256 719.704876 
L 919.553437 719.704876 
" clip-path="url(#p537904fcdf)" style="fill: none; stroke: #cbcbcb"/>
     </g>
     <g id="line2d_71"/>
     <g id="text_41">
      <!-- 0.1 -->
      <g transform="translate(499.941818 723.884017) scale(0.11 -0.11)">
       <use xlink:href="#DejaVuSans-30"/>
       <use xlink:href="#DejaVuSans-2e" x="63.623047"/>
       <use xlink:href="#DejaVuSans-31" x="95.410156"/>
      </g>
     </g>
    </g>
    <g id="ytick_19">
     <g id="line2d_72">
      <path d="M 520.935256 657.489752 
L 919.553437 657.489752 
" clip-path="url(#p537904fcdf)" style="fill: none; stroke: #cbcbcb"/>
     </g>
     <g id="line2d_73"/>
     <g id="text_42">
      <!-- 0.2 -->
      <g transform="translate(499.941818 661.668893) scale(0.11 -0.11)">
       <use xlink:href="#DejaVuSans-30"/>
       <use xlink:href="#DejaVuSans-2e" x="63.623047"/>
       <use xlink:href="#DejaVuSans-32" x="95.410156"/>
      </g>
     </g>
    </g>
    <g id="ytick_20">
     <g id="line2d_74">
      <path d="M 520.935256 595.274628 
L 919.553437 595.274628 
" clip-path="url(#p537904fcdf)" style="fill: none; stroke: #cbcbcb"/>
     </g>
     <g id="line2d_75"/>
     <g id="text_43">
      <!-- 0.3 -->
      <g transform="translate(499.941818 599.453769) scale(0.11 -0.11)">
       <use xlink:href="#DejaVuSans-30"/>
       <use xlink:href="#DejaVuSans-2e" x="63.623047"/>
       <use xlink:href="#DejaVuSans-33" x="95.410156"/>
      </g>
     </g>
    </g>
    <g id="ytick_21">
     <g id="line2d_76">
      <path d="M 520.935256 533.059505 
L 919.553437 533.059505 
" clip-path="url(#p537904fcdf)" style="fill: none; stroke: #cbcbcb"/>
     </g>
     <g id="line2d_77"/>
     <g id="text_44">
      <!-- 0.4 -->
      <g transform="translate(499.941818 537.238645) scale(0.11 -0.11)">
       <use xlink:href="#DejaVuSans-30"/>
       <use xlink:href="#DejaVuSans-2e" x="63.623047"/>
       <use xlink:href="#DejaVuSans-34" x="95.410156"/>
      </g>
     </g>
    </g>
   </g>
   <g id="patch_33">
    <path d="M 528.907619 781.92 
L 592.686528 781.92 
L 592.686528 492.13118 
L 528.907619 492.13118 
z
" clip-path="url(#p537904fcdf)" style="fill: #1b86ba"/>
   </g>
   <g id="patch_34">
    <path d="M 608.631256 781.92 
L 672.410165 781.92 
L 672.410165 530.002468 
L 608.631256 530.002468 
z
" clip-path="url(#p537904fcdf)" style="fill: #e36149"/>
   </g>
   <g id="patch_35">
    <path d="M 688.354892 781.92 
L 752.133801 781.92 
L 752.133801 576.491193 
L 688.354892 576.491193 
z
" clip-path="url(#p537904fcdf)" style="fill: #cfa64e"/>
   </g>
   <g id="patch_36">
    <path d="M 768.078528 781.92 
L 831.857438 781.92 
L 831.857438 594.77471 
L 768.078528 594.77471 
z
" clip-path="url(#p537904fcdf)" style="fill: #6e8857"/>
   </g>
   <g id="patch_37">
    <path d="M 847.802165 781.92 
L 911.581074 781.92 
L 911.581074 635.821054 
L 847.802165 635.821054 
z
" clip-path="url(#p537904fcdf)" style="fill: #8b8b8b"/>
   </g>
   <g id="line2d_78">
    <path clip-path="url(#p537904fcdf)" style="fill: none; stroke: #424242; stroke-width: 7.2"/>
   </g>
   <g id="line2d_79">
    <path clip-path="url(#p537904fcdf)" style="fill: none; stroke: #424242; stroke-width: 7.2"/>
   </g>
   <g id="line2d_80">
    <path clip-path="url(#p537904fcdf)" style="fill: none; stroke: #424242; stroke-width: 7.2"/>
   </g>
   <g id="line2d_81">
    <path clip-path="url(#p537904fcdf)" style="fill: none; stroke: #424242; stroke-width: 7.2"/>
   </g>
   <g id="line2d_82">
    <path clip-path="url(#p537904fcdf)" style="fill: none; stroke: #424242; stroke-width: 7.2"/>
   </g>
   <g id="patch_38">
    <path d="M 520.935256 781.92 
L 520.935256 477.641739 
" style="fill: none; stroke: #f0f0f0; stroke-width: 3; stroke-linejoin: miter; stroke-linecap: square"/>
   </g>
   <g id="patch_39">
    <path d="M 919.553437 781.92 
L 919.553437 477.641739 
" style="fill: none; stroke: #f0f0f0; stroke-width: 3; stroke-linejoin: miter; stroke-linecap: square"/>
   </g>
   <g id="patch_40">
    <path d="M 520.935256 781.92 
L 919.553437 781.92 
" style="fill: none; stroke: #f0f0f0; stroke-width: 3; stroke-linejoin: miter; stroke-linecap: square"/>
   </g>
   <g id="patch_41">
    <path d="M 520.935256 477.641739 
L 919.553437 477.641739 
" style="fill: none; stroke: #f0f0f0; stroke-width: 3; stroke-linejoin: miter; stroke-linecap: square"/>
   </g>
   <g id="text_45">
    <!-- Based on : EigenVector centrality -->
    <g transform="translate(586.976847 471.641739) scale(0.16 -0.16)">
     <defs>
      <path id="DejaVuSans-56" d="M 1831 0 
L 50 4666 
L 709 4666 
L 2188 738 
L 3669 4666 
L 4325 4666 
L 2547 0 
L 1831 0 
z
" transform="scale(0.015625)"/>
     </defs>
     <use xlink:href="#DejaVuSans-42"/>
     <use xlink:href="#DejaVuSans-61" x="68.603516"/>
     <use xlink:href="#DejaVuSans-73" x="129.882812"/>
     <use xlink:href="#DejaVuSans-65" x="181.982422"/>
     <use xlink:href="#DejaVuSans-64" x="243.505859"/>
     <use xlink:href="#DejaVuSans-20" x="306.982422"/>
     <use xlink:href="#DejaVuSans-6f" x="338.769531"/>
     <use xlink:href="#DejaVuSans-6e" x="399.951172"/>
     <use xlink:href="#DejaVuSans-20" x="463.330078"/>
     <use xlink:href="#DejaVuSans-3a" x="495.117188"/>
     <use xlink:href="#DejaVuSans-20" x="528.808594"/>
     <use xlink:href="#DejaVuSans-45" x="560.595703"/>
     <use xlink:href="#DejaVuSans-69" x="623.779297"/>
     <use xlink:href="#DejaVuSans-67" x="651.5625"/>
     <use xlink:href="#DejaVuSans-65" x="715.039062"/>
     <use xlink:href="#DejaVuSans-6e" x="776.5625"/>
     <use xlink:href="#DejaVuSans-56" x="839.941406"/>
     <use xlink:href="#DejaVuSans-65" x="900.599609"/>
     <use xlink:href="#DejaVuSans-63" x="962.123047"/>
     <use xlink:href="#DejaVuSans-74" x="1017.103516"/>
     <use xlink:href="#DejaVuSans-6f" x="1056.3125"/>
     <use xlink:href="#DejaVuSans-72" x="1117.494141"/>
     <use xlink:href="#DejaVuSans-20" x="1158.607422"/>
     <use xlink:href="#DejaVuSans-63" x="1190.394531"/>
     <use xlink:href="#DejaVuSans-65" x="1245.375"/>
     <use xlink:href="#DejaVuSans-6e" x="1306.898438"/>
     <use xlink:href="#DejaVuSans-74" x="1370.277344"/>
     <use xlink:href="#DejaVuSans-72" x="1409.486328"/>
     <use xlink:href="#DejaVuSans-61" x="1450.599609"/>
     <use xlink:href="#DejaVuSans-6c" x="1511.878906"/>
     <use xlink:href="#DejaVuSans-69" x="1539.662109"/>
     <use xlink:href="#DejaVuSans-74" x="1567.445312"/>
     <use xlink:href="#DejaVuSans-79" x="1606.654297"/>
    </g>
   </g>
  </g>
  <g id="text_46">
   <!-- Season_1 : Character importance -->
   <g transform="translate(315.594375 35.277187) scale(0.18 -0.18)">
    <defs>
     <path id="DejaVuSans-5f" d="M 3263 -1063 
L 3263 -1509 
L -63 -1509 
L -63 -1063 
L 3263 -1063 
z
" transform="scale(0.015625)"/>
     <path id="DejaVuSans-68" d="M 3513 2113 
L 3513 0 
L 2938 0 
L 2938 2094 
Q 2938 2591 2744 2837 
Q 2550 3084 2163 3084 
Q 1697 3084 1428 2787 
Q 1159 2491 1159 1978 
L 1159 0 
L 581 0 
L 581 4863 
L 1159 4863 
L 1159 2956 
Q 1366 3272 1645 3428 
Q 1925 3584 2291 3584 
Q 2894 3584 3203 3211 
Q 3513 2838 3513 2113 
z
" transform="scale(0.015625)"/>
     <path id="DejaVuSans-70" d="M 1159 525 
L 1159 -1331 
L 581 -1331 
L 581 3500 
L 1159 3500 
L 1159 2969 
Q 1341 3281 1617 3432 
Q 1894 3584 2278 3584 
Q 2916 3584 3314 3078 
Q 3713 2572 3713 1747 
Q 3713 922 3314 415 
Q 2916 -91 2278 -91 
Q 1894 -91 1617 61 
Q 1341 213 1159 525 
z
M 3116 1747 
Q 3116 2381 2855 2742 
Q 2594 3103 2138 3103 
Q 1681 3103 1420 2742 
Q 1159 2381 1159 1747 
Q 1159 1113 1420 752 
Q 1681 391 2138 391 
Q 2594 391 2855 752 
Q 3116 1113 3116 1747 
z
" transform="scale(0.015625)"/>
    </defs>
    <use xlink:href="#DejaVuSans-53"/>
    <use xlink:href="#DejaVuSans-65" x="63.476562"/>
    <use xlink:href="#DejaVuSans-61" x="125"/>
    <use xlink:href="#DejaVuSans-73" x="186.279297"/>
    <use xlink:href="#DejaVuSans-6f" x="238.378906"/>
    <use xlink:href="#DejaVuSans-6e" x="299.560547"/>
    <use xlink:href="#DejaVuSans-5f" x="362.939453"/>
    <use xlink:href="#DejaVuSans-31" x="412.939453"/>
    <use xlink:href="#DejaVuSans-20" x="476.5625"/>
    <use xlink:href="#DejaVuSans-3a" x="508.349609"/>
    <use xlink:href="#DejaVuSans-20" x="542.041016"/>
    <use xlink:href="#DejaVuSans-43" x="573.828125"/>
    <use xlink:href="#DejaVuSans-68" x="643.652344"/>
    <use xlink:href="#DejaVuSans-61" x="707.03125"/>
    <use xlink:href="#DejaVuSans-72" x="768.310547"/>
    <use xlink:href="#DejaVuSans-61" x="809.423828"/>
    <use xlink:href="#DejaVuSans-63" x="870.703125"/>
    <use xlink:href="#DejaVuSans-74" x="925.683594"/>
    <use xlink:href="#DejaVuSans-65" x="964.892578"/>
    <use xlink:href="#DejaVuSans-72" x="1026.416016"/>
    <use xlink:href="#DejaVuSans-20" x="1067.529297"/>
    <use xlink:href="#DejaVuSans-69" x="1099.316406"/>
    <use xlink:href="#DejaVuSans-6d" x="1127.099609"/>
    <use xlink:href="#DejaVuSans-70" x="1224.511719"/>
    <use xlink:href="#DejaVuSans-6f" x="1287.988281"/>
    <use xlink:href="#DejaVuSans-72" x="1349.169922"/>
    <use xlink:href="#DejaVuSans-74" x="1390.283203"/>
    <use xlink:href="#DejaVuSans-61" x="1429.492188"/>
    <use xlink:href="#DejaVuSans-6e" x="1490.771484"/>
    <use xlink:href="#DejaVuSans-63" x="1554.150391"/>
    <use xlink:href="#DejaVuSans-65" x="1609.130859"/>
   </g>
  </g>
 </g>
 <defs>
  <clipPath id="p357c358ecb">
   <rect x="42.593438" y="82.08" width="398.618182" height="304.278261"/>
  </clipPath>
  <clipPath id="p87f130310c">
   <rect x="520.935256" y="82.08" width="398.618182" height="304.278261"/>
  </clipPath>
  <clipPath id="pa6ba6c88b0">
   <rect x="42.593438" y="477.641739" width="398.618182" height="304.278261"/>
  </clipPath>
  <clipPath id="p537904fcdf">
   <rect x="520.935256" y="477.641739" width="398.618182" height="304.278261"/>
  </clipPath>
 </defs>
</svg>
